<svg xmlns="http://www.w3.org/2000/svg" viewBox="0 0 246.13 311.12"><defs><style>.cls-1{fill:#fff;}</style></defs><g id="Слой_2" data-name="Слой 2"><g id="Слой_1-2" data-name="Слой 1"><path d="M195.86,189.85c19.23,31.72,9.75,27.7,45.26,35.76,17.55,26.11-15.12,33.5-35.07,33.49-45.71,18.92-28.76,7-50.05,47.41-4.26,7.82-13.32,3.9-19.59,1.26-8.53-4.2-5.08-14.16-8-21.63.27-10.68-.33-18.16-3.88-28.92-4.91,9.4-12.78,21.7-24.36,14.74-5.86-5-17.61-10.63-13.52-20.06,4.29-14.55,25.45-23.46,24.68-38.19l6.79-6.62c-11.55-.31-21.82-6.4-32.54-6.39-5.21,5.61-11.26,5.47-17.44,2.78C52.65,197.09,48.8,176.68,49,161.55c-10.34-25-12.88-51.61-6-78.09L16.23,81.34c4.85-4.39,8.9-8,13.66-12.34L0,57.41l23.65-10L6.18,17.1,43.32,23c.94-7.68,1.83-14.81,2.84-23L66.93,25.05C70.74,19.1,74.28,13.57,78.53,7c1.46,8.43,2.72,15.71,4.1,23.65,49.49-33.4,124-19.11,135.44,46C228.61,115.64,245.66,171.66,195.86,189.85ZM81,176c-5.6,11.52-13.21-3.86-19.56-6.84-13.48-2.81,3.48,27.38,11.3,27.33,9.46,5.39,4.19-13.85,13.79-7.71,33.1,21.28,112.94,5.25,132.83-30-32.21,21.86-49.35-30.62-24.78-41.61,11.09-6.32,21.23-5.87,27.16,7.06-4.9-21.33-5.5-45-27.66-53.55-2.82-2-4.71-1.75-6.66,1-3.48,6.13-6.07-5.5-10,0-4.33,2.31-9.1,13.83-13.74,6.48-4,11.88-11.9,6.71-18.84,5.46,2.6,12.3-11.18,2-17.41,2-.71,9.21-9.72,3-16,3.06.46,2.13.82,3.78,1.23,5.7l-12,2.06c1.77,4.11,3.25,7.54,4.88,11.34l-12.61,4c9.87,17.91-7,8.83,3.07,23.47.25,1.62.48,4.2-.37,4.92-10.74,12.27-1.19,29.48-1.24,44.78C88.9,181.38,84.63,178.48,81,176Zm87.65,44.89c4.19,12.64,5.32,24.16,4.61,37.15-.47,7.18-11.08,7-16,10.71l.47,1.16c17-5.44,33.84-11.15,49.77-20.53C175.53,232.41,189.88,208.82,168.63,220.89Zm-36,36.32c7.21-5.09,23.74-4,20.27-15.67-4.19-10.46-2.78-23.6-14.24-29.53,2.75,7.73.69,16.11-4,21C124.86,235.64,133.1,249.94,132.66,257.21Zm-7.91-28c-11.24-9.61-10.36.95-16.19,8.87-.64,1.09-1.4,2.65-2.35,2.89-6,2-13,10.09-11.09,16.28,5.92,7.39,15.53,14,18.87.8,4.29-2.89,2.76-5.88.52-9.19C110.69,244.41,123.09,238.84,124.75,229.21Zm65.93-94.74c-1.8,26.73,29.07,29.89,26.48,2.54-1.67-8.19-5.44-20.42-15.75-14.5C193.05,125.93,190.64,129,190.68,134.47ZM144,206.62c12.25,10.06,16.73,30.25,15.21,45.68-1.37,3.2-11.6,3-7,8.95,4.23-3,12.43-2.41,12.76-8.5C165.43,240.6,161.37,201.33,144,206.62ZM189,194.27c-17.52-1.29,13.33,55.06,24.56,42.23-5.37-6.74-14.29-6.13-17.73-16.15C192.68,211.79,183.75,204.11,189,194.27Zm-58.34,28.92c4.17-8.44-3.75-14.34-10.21-7.51Zm13.7,59.72c5.59,1.41,10.91,6.55,16,1.58C152.48,280.49,149.47,280.23,144.38,282.91ZM166,210.79c-.25,4.94,9.76,1.41,10.26-2.35C172.65,206.33,169.45,209.61,166,210.79Zm7.13-12.13-11.64,3.1C164.09,204.59,169.35,203.26,173.17,198.66ZM204.28,222l1.19-.76-8.19-14.08-.83.54Z"/><path class="cls-1" d="M81,176c3.65,2.48,7.92,5.38,13.35,9.05,0-15.28-9.5-32.53,1.24-44.78.85-.72.62-3.3.37-4.92-10-14.61,6.8-5.6-3.07-23.47l12.61-4c-1.63-3.8-3.11-7.23-4.88-11.34l12-2.06c-.41-1.92-.77-3.57-1.23-5.7,6.27,0,15.28,6.15,16-3.06,6.23,0,20,10.26,17.41-2,6.94,1.25,14.81,6.42,18.84-5.46,4.62,7.35,9.43-4.16,13.75-6.48,3.94-5.54,6.53,6.08,10,0,1.95-2.77,3.84-3,6.66-1,22.16,8.52,22.76,32.22,27.66,53.55-5.94-12.91-16.07-13.4-27.16-7.05-24.57,11-7.44,63.46,24.78,41.6-19.7,35.14-99.84,51.28-132.83,30-9.6-6.15-4.33,13.09-13.79,7.7-7.89,0-24.73-30.13-11.3-27.33C67.75,172.13,75.39,187.53,81,176Zm39.24,10.09c35.46,4.23,48.42-43.82,17.17-53.44C83.33,127,85.23,183.44,120.22,186.09Z"/><path class="cls-1" d="M168.63,220.89c21.24-12.08,6.9,11.51,38.88,28.49-15.93,9.38-32.8,15.09-49.77,20.53l-.47-1.16c4.89-3.69,15.5-3.54,16-10.71C174,245.05,172.82,233.53,168.63,220.89Z"/><path class="cls-1" d="M132.66,257.21c.44-7.25-7.8-21.59,2.06-24.21,4.66-4.89,6.72-13.25,4-21,11.46,5.92,10.05,19.08,14.24,29.52C156.4,253.17,139.87,252.11,132.66,257.21Z"/><path class="cls-1" d="M124.75,229.21c-1.65,9.64-14,15.13-10.25,19.65,2.25,3.31,3.78,6.3-.51,9.19-3.33,13.2-12.95,6.6-18.87-.8-2-6.19,5.11-14.24,11.09-16.28,1-.24,1.71-1.8,2.35-2.9C114.38,230.18,113.51,219.59,124.75,229.21Z"/><path class="cls-1" d="M190.68,134.47c0-5.45,2.37-8.54,10.73-12,10.31-5.92,14.09,6.31,15.75,14.51C219.75,164.37,188.87,161.19,190.68,134.47ZM216,137.79c.48-13.82-18-16.93-17.92-1.62C197.58,150,216.2,153.13,216,137.79Z"/><path class="cls-1" d="M144,206.62c17.36-5.34,21.47,34,21,46.13-.32,6.1-8.53,5.47-12.76,8.5-4.65-5.91,5.58-5.74,7-8.95C160.7,236.87,156.22,216.69,144,206.62Z"/><path class="cls-1" d="M189,194.27c-5.28,9.83,3.66,17.53,6.83,26.08,3.45,10,12.34,9.4,17.73,16.15C202.41,249.34,171.49,193,189,194.27Z"/><path class="cls-1" d="M130.68,223.19l-10.21-7.51C126.93,208.85,134.85,214.75,130.68,223.19Z"/><path class="cls-1" d="M166,210.79c3.41-1.18,6.6-4.46,10.26-2.35C175.8,212.19,165.79,215.74,166,210.79Z"/><path class="cls-1" d="M173.17,198.66c-3.82,4.6-9.08,5.93-11.64,3.1Z"/><path class="cls-1" d="M204.28,222l-7.83-14.3.83-.54,8.19,14.08Z"/><path d="M120.22,186.09c-35-2.65-36.88-59.06,17.16-53.43C168.65,142.27,155.67,190.32,120.22,186.09Zm9.95-46C100,138.55,93,171.75,119.4,177.89,154.25,181.72,155.29,138.54,130.17,140.05Z"/><path d="M216,137.79c.25,15.34-18.38,12.17-17.92-1.63C197.91,120.86,216.43,124,216,137.79Zm-1.47-4.57c-2.91-2.76-4.9-6.24-7.15-1.94C209.47,134.8,210.06,137.16,214.48,133.22Z"/><path class="cls-1" d="M130.17,140.05c25.12-1.51,24.07,41.67-10.77,37.84C93,171.74,100.05,138.55,130.17,140.05Zm-1.89,4.26c-15-.43-14.88,24.28-.16,24.09C142.66,168.9,142.67,144.05,128.28,144.31Z"/><path class="cls-1" d="M214.48,133.22c-4.42,3.94-5,1.58-7.15-1.94C209.59,127,211.57,130.46,214.48,133.22Z"/><path d="M128.28,144.31c14.39-.26,14.38,24.59-.16,24.09C113.4,168.59,113.28,143.88,128.28,144.31Zm3.55,2.25c-3.91,4.68-1.85,5.24,1.24,8.39C137.05,151.77,134.18,150.43,131.83,146.56Z"/><path class="cls-1" d="M131.83,146.56c2.35,3.87,5.22,5.21,1.24,8.39C130,151.8,127.92,151.25,131.83,146.56Z"/></g></g></svg>